<svg width="24" height="24" viewBox="0 0 24 24" fill="none" xmlns="http://www.w3.org/2000/svg">
<rect width="24" height="24" fill="none"/>
<path d="M6.47532 13.1554L14.8446 21.5122C15.1528 21.8375 15.5377 22 16 22C16.4623 22 16.8472 21.8373 17.1554 21.5122L18.131 20.5493C18.4477 20.2327 18.6061 19.8477 18.6061 19.3942C18.6061 18.9492 18.4478 18.5597 18.131 18.226L11.8924 12L18.1313 5.76109C18.4479 5.44442 18.6063 5.0595 18.6063 4.60588C18.6063 4.16093 18.448 3.77129 18.1313 3.43776L17.1556 2.47498C16.8389 2.15831 16.4537 2 16.0002 2C15.5466 2 15.1614 2.15831 14.8448 2.47498L6.47532 10.8318C6.15852 11.1656 6.00003 11.555 6.00003 12C5.99998 12.4536 6.15852 12.8387 6.47532 13.1554Z" fill="white"/>
</svg>
