<svg width="24" height="24" viewBox="0 0 24 24" fill="none" xmlns="http://www.w3.org/2000/svg">
<rect width="24" height="24" fill="none"/>
<path d="M18.1309 10.8446L9.76163 2.48775C9.45341 2.16254 9.06854 2 8.60623 2C8.14393 2 7.75906 2.16272 7.45084 2.48775L6.47525 3.45066C6.15854 3.76733 6.00018 4.15225 6.00018 4.60583C6.00018 5.05082 6.15849 5.44033 6.47525 5.77399L12.7139 12L6.47498 18.2389C6.15836 18.5556 6 18.9405 6 19.3941C6 19.8391 6.15831 20.2287 6.47498 20.5622L7.45066 21.525C7.76733 21.8417 8.15261 22 8.60605 22C9.05968 22 9.44487 21.8417 9.76145 21.525L18.1309 13.1682C18.4477 12.8344 18.6062 12.445 18.6062 12C18.6063 11.5464 18.4477 11.1613 18.1309 10.8446Z" fill="white"/>
</svg>
