<svg width="24" height="24" viewBox="0 0 24 24" fill="none" xmlns="http://www.w3.org/2000/svg">
<rect width="24" height="24" fill="none"/>
<path fill-rule="evenodd" clip-rule="evenodd" d="M16.0624 15.2662L20.758 20.2168C21.1553 20.6357 21.1421 21.3034 20.7293 21.7061C20.535 21.8957 20.279 22 20.0092 22C19.7242 22 19.4582 21.8852 19.2605 21.677L14.5292 16.6888C13.1858 17.6458 11.6145 18.15 9.96563 18.15C5.57345 18.15 2 14.5275 2 10.075C2 5.62251 5.57345 2 9.96563 2C14.3578 2 17.9313 5.62251 17.9313 10.075C17.9313 11.9807 17.2698 13.8113 16.0624 15.2662ZM15.8533 10.075C15.8533 6.78391 13.2121 4.10652 9.96563 4.10652C6.71911 4.10652 4.07799 6.78391 4.07799 10.075C4.07799 13.3661 6.71911 16.0435 9.96563 16.0435C13.2121 16.0435 15.8533 13.3661 15.8533 10.075Z" fill="#C42521"/>
</svg>
