<svg width="129" height="39" viewBox="0 0 129 39" fill="none" xmlns="http://www.w3.org/2000/svg">
<path fill-rule="evenodd" clip-rule="evenodd" d="M123.506 37.4593H4.82949C2.42558 37.4593 0.475891 35.5096 0.475891 33.1057V4.99151C0.475891 2.5866 2.42558 0.637915 4.82949 0.637915H123.506C125.91 0.637915 127.858 2.5866 127.858 4.99151V33.1057C127.858 35.5096 125.91 37.4593 123.506 37.4593Z" fill="black"/>
<path fill-rule="evenodd" clip-rule="evenodd" d="M4.82959 1.11391C2.69222 1.11391 0.952181 2.85295 0.952181 4.99131V33.1055C0.952181 35.2439 2.69222 36.9829 4.82959 36.9829H123.506C125.644 36.9829 127.383 35.2439 127.383 33.1055V4.99131C127.383 2.85295 125.644 1.11391 123.506 1.11391H4.82959ZM123.506 37.9353H4.82959C2.16712 37.9353 -0.000199661 35.769 -0.000199661 33.1055V4.99131C-0.000199661 2.32784 2.16712 0.161525 4.82959 0.161525H123.506C126.168 0.161525 128.336 2.32784 128.336 4.99131V33.1055C128.336 35.769 126.168 37.9353 123.506 37.9353Z" fill="#A6A8AB"/>
<path fill-rule="evenodd" clip-rule="evenodd" d="M44.5023 10.0474L44.0142 8.51902C43.8944 8.14166 43.7935 7.71838 43.7017 7.35899H43.6827C43.5909 7.71838 43.499 8.15064 43.3882 8.51902L42.91 10.0474H44.5023ZM42.7254 10.903L42.1913 12.662H41.0223L43.0109 6.45652H44.4564L46.472 12.662H45.2571L44.695 10.903H42.7254Z" fill="#FEFEFE"/>
<path fill-rule="evenodd" clip-rule="evenodd" d="M48.1646 8.1785L48.8914 10.4526C49.0202 10.848 49.113 11.2073 49.1959 11.5757H49.2238C49.3067 11.2073 49.4075 10.8569 49.5273 10.4526L50.2441 8.1785H51.4321L49.72 12.6619H48.6059L46.9397 8.1785H48.1646Z" fill="#FEFEFE"/>
<path fill-rule="evenodd" clip-rule="evenodd" d="M54.8465 10.4705C54.0459 10.4615 53.2812 10.6272 53.2812 11.3081C53.2812 11.7503 53.5667 11.952 53.9261 11.952C54.3863 11.952 54.7078 11.6575 54.8186 11.336C54.8465 11.2532 54.8465 11.1703 54.8465 11.0874V10.4705ZM55.9507 11.5846C55.9507 11.9889 55.9696 12.3852 56.0245 12.6618H55.0033L54.9204 12.1646H54.8925C54.6259 12.514 54.1557 12.7626 53.5667 12.7626C52.6643 12.7626 52.1581 12.1097 52.1581 11.4279C52.1581 10.3048 53.1624 9.72477 54.8186 9.73375V9.65988C54.8186 9.36637 54.6998 8.8782 53.9081 8.8782C53.4659 8.8782 53.0057 9.01597 52.7022 9.20964L52.4806 8.47289C52.812 8.27024 53.392 8.07757 54.1008 8.07757C55.5374 8.07757 55.9507 8.98802 55.9507 9.97334V11.5846Z" fill="#FEFEFE"/>
<mask id="mask0_0_43" style="mask-type:alpha" maskUnits="userSpaceOnUse" x="0" y="0" width="129" height="38">
<path fill-rule="evenodd" clip-rule="evenodd" d="M0 37.9355H128.335V0.161725H0V37.9355Z" fill="white"/>
</mask>
<g mask="url(#mask0_0_43)">
<path fill-rule="evenodd" clip-rule="evenodd" d="M57.5512 12.6615H58.6832V8.1781H57.5512V12.6615ZM58.1132 7.53419C57.7358 7.53419 57.4873 7.25766 57.4873 6.92622C57.4873 6.57682 57.7448 6.30927 58.1222 6.30927C58.5095 6.30927 58.7481 6.57682 58.7571 6.92622C58.7571 7.25766 58.5095 7.53419 58.1222 7.53419H58.1132Z" fill="#FEFEFE"/>
<path fill-rule="evenodd" clip-rule="evenodd" d="M60.3125 12.6625H61.4445V6.1166H60.3125V12.6625Z" fill="#FEFEFE"/>
<path fill-rule="evenodd" clip-rule="evenodd" d="M65.4574 10.4705C64.6568 10.4615 63.8931 10.6272 63.8931 11.3081C63.8931 11.7503 64.1776 11.952 64.537 11.952C64.9972 11.952 65.3196 11.6575 65.4295 11.336C65.4574 11.2532 65.4574 11.1703 65.4574 11.0874V10.4705ZM66.5625 11.5846C66.5625 11.9889 66.5805 12.3852 66.6354 12.6618H65.6141L65.5313 12.1646H65.5033C65.2368 12.514 64.7676 12.7626 64.1776 12.7626C63.2761 12.7626 62.77 12.1097 62.77 11.4279C62.77 10.3048 63.7733 9.72477 65.4295 9.73375V9.65988C65.4295 9.36637 65.3107 8.8782 64.519 8.8782C64.0768 8.8782 63.6165 9.01597 63.3131 9.20964L63.0914 8.47289C63.4229 8.27024 64.0029 8.07757 64.7117 8.07757C66.1482 8.07757 66.5625 8.98802 66.5625 9.97334V11.5846Z" fill="#FEFEFE"/>
<path fill-rule="evenodd" clip-rule="evenodd" d="M69.2952 10.8112C69.2952 10.9031 69.3042 10.9959 69.3231 11.0778C69.4429 11.539 69.8383 11.8704 70.3264 11.8704C71.0352 11.8704 71.4675 11.3084 71.4675 10.3969C71.4675 9.60527 71.0901 8.96037 70.3354 8.96037C69.8752 8.96037 69.4519 9.2928 69.3321 9.78996C69.3142 9.87182 69.2952 9.97364 69.2952 10.0835V10.8112ZM68.1631 6.1162H69.2952V8.79465H69.3142C69.5897 8.36238 70.0779 8.07687 70.7507 8.07687C71.8459 8.07687 72.6275 8.98832 72.6185 10.351C72.6185 11.9613 71.5973 12.7629 70.585 12.7629C70.004 12.7629 69.4889 12.5413 69.1664 11.9892H69.1484L69.0925 12.6621H68.1262C68.1451 12.3576 68.1631 11.8604 68.1631 11.4092V6.1162Z" fill="#FEFEFE"/>
<path fill-rule="evenodd" clip-rule="evenodd" d="M73.9523 12.6625H75.0843V6.1166H73.9523V12.6625Z" fill="#FEFEFE"/>
<path fill-rule="evenodd" clip-rule="evenodd" d="M79.4926 9.94599C79.5016 9.53169 79.3179 8.84985 78.5632 8.84985C77.8634 8.84985 77.5689 9.48577 77.523 9.94599H79.4926ZM77.523 10.7376C77.5509 11.5473 78.1849 11.8977 78.9036 11.8977C79.4278 11.8977 79.7961 11.8148 80.1465 11.695L80.3123 12.4677C79.9259 12.6334 79.3908 12.7542 78.7469 12.7542C77.2924 12.7542 76.4358 11.8607 76.4358 10.4891C76.4358 9.24618 77.1916 8.07717 78.6271 8.07717C80.0816 8.07717 80.5598 9.27413 80.5598 10.2585C80.5598 10.4701 80.5419 10.6358 80.5239 10.7376H77.523Z" fill="#FEFEFE"/>
<path fill-rule="evenodd" clip-rule="evenodd" d="M86.1835 11.9436C86.8274 11.9436 87.2786 11.3177 87.2786 10.4062C87.2786 9.7064 86.9661 8.89677 86.1925 8.89677C85.3918 8.89677 85.0694 9.67844 85.0694 10.4252C85.0694 11.2897 85.5016 11.9436 86.1745 11.9436H86.1835ZM86.1465 12.7632C84.8857 12.7632 83.8994 11.8977 83.8994 10.4521C83.8994 8.97863 84.8667 8.07717 86.2204 8.07717C87.5551 8.07717 88.4486 9.01557 88.4486 10.3793C88.4486 12.0265 87.2876 12.7632 86.1555 12.7632H86.1465Z" fill="#FEFEFE"/>
<path fill-rule="evenodd" clip-rule="evenodd" d="M89.7814 9.51313C89.7814 8.997 89.7624 8.56474 89.7444 8.17839H90.7287L90.7846 8.85025H90.8126C91.0143 8.50085 91.5024 8.07757 92.2482 8.07757C93.0308 8.07757 93.8405 8.58371 93.8405 10.0013V12.6618H92.7084V10.1301C92.7084 9.48617 92.4688 8.997 91.8518 8.997C91.4016 8.997 91.0891 9.31945 90.9683 9.65988C90.9314 9.75272 90.9134 9.89048 90.9134 10.0193V12.6618H89.7814V9.51313Z" fill="#FEFEFE"/>
<path fill-rule="evenodd" clip-rule="evenodd" d="M99.058 7.02765V8.17869H100.135V9.02526H99.058V10.9959C99.058 11.548 99.2047 11.8235 99.638 11.8235C99.8396 11.8235 99.9505 11.8145 100.079 11.7776L100.098 12.6341C99.9315 12.699 99.629 12.7539 99.2786 12.7539C98.8553 12.7539 98.5149 12.6152 98.3033 12.3855C98.0547 12.128 97.9439 11.7137 97.9439 11.1247V9.02526H97.309V8.17869H97.9439V7.34012L99.058 7.02765Z" fill="#FEFEFE"/>
<path fill-rule="evenodd" clip-rule="evenodd" d="M101.396 6.1161H102.528V8.78556H102.546C102.685 8.57392 102.877 8.39922 103.108 8.27942C103.339 8.15064 103.605 8.07677 103.891 8.07677C104.654 8.07677 105.455 8.58391 105.455 10.0195V12.662H104.323V10.1393C104.323 9.49436 104.083 8.9972 103.457 8.9972C103.016 8.9972 102.703 9.2927 102.574 9.63212C102.537 9.73395 102.528 9.85375 102.528 9.97354V12.662H101.396V6.1161Z" fill="#FEFEFE"/>
<path fill-rule="evenodd" clip-rule="evenodd" d="M109.835 9.94599C109.845 9.53169 109.66 8.84985 108.905 8.84985C108.206 8.84985 107.912 9.48577 107.865 9.94599H109.835ZM107.865 10.7376C107.893 11.5473 108.528 11.8977 109.246 11.8977C109.771 11.8977 110.139 11.8148 110.489 11.695L110.654 12.4677C110.269 12.6334 109.733 12.7542 109.09 12.7542C107.635 12.7542 106.779 11.8607 106.779 10.4891C106.779 9.24618 107.534 8.07717 108.97 8.07717C110.425 8.07717 110.903 9.27413 110.903 10.2585C110.903 10.4701 110.885 10.6358 110.866 10.7376H107.865Z" fill="#FEFEFE"/>
<path fill-rule="evenodd" clip-rule="evenodd" d="M28.6406 18.6797C28.6127 15.61 31.1553 14.1145 31.2711 14.0456C29.8326 11.9442 27.5994 11.6587 26.8157 11.6357C24.9419 11.44 23.124 12.7588 22.1706 12.7588C21.1963 12.7588 19.7228 11.6557 18.1405 11.6876C16.1009 11.7206 14.1932 12.9006 13.1479 14.7334C10.9896 18.4721 12.5999 23.9638 14.6674 26.9876C15.7026 28.4661 16.9115 30.1183 18.4939 30.0594C20.0422 29.9955 20.6192 29.0741 22.4891 29.0741C24.3409 29.0741 24.884 30.0594 26.4982 30.0225C28.1604 29.9955 29.2046 28.537 30.2029 27.0425C31.4009 25.3474 31.8801 23.6772 31.8991 23.5904C31.8601 23.5774 28.6726 22.3615 28.6406 18.6797Z" fill="#FEFEFE"/>
<path fill-rule="evenodd" clip-rule="evenodd" d="M25.5911 9.6487C26.4237 8.60747 26.9947 7.18988 26.834 5.75232C25.63 5.80623 24.1236 6.5859 23.2561 7.60517C22.4874 8.50264 21.7995 9.97514 21.9782 11.3578C23.3329 11.4576 24.7216 10.674 25.5911 9.6487Z" fill="#FEFEFE"/>
<path fill-rule="evenodd" clip-rule="evenodd" d="M47.3242 24.5433L46.2571 21.2419C46.1413 20.9055 45.9306 20.1108 45.6181 18.8609H45.5802C45.4544 19.399 45.2538 20.1927 44.9792 21.2419L43.929 24.5433H47.3242ZM51.018 29.8163H48.8616L47.6796 26.1016H43.5736L42.4465 29.8163H40.3461L44.4182 17.1728H46.9289L51.018 29.8163Z" fill="#FEFEFE"/>
<path fill-rule="evenodd" clip-rule="evenodd" d="M59.4218 25.2189C59.4218 24.3314 59.2211 23.5997 58.8218 23.0237C58.3835 22.4247 57.7955 22.1232 57.0598 22.1232C56.5586 22.1232 56.1034 22.2909 55.6991 22.6203C55.2928 22.9538 55.0272 23.388 54.9025 23.9261C54.8396 24.1767 54.8086 24.3813 54.8086 24.5431V26.0635C54.8086 26.7264 55.0113 27.2864 55.4166 27.7416C55.8239 28.1999 56.352 28.4255 57.0029 28.4255C57.7656 28.4255 58.3596 28.134 58.7839 27.546C59.2101 26.957 59.4218 26.1823 59.4218 25.2189ZM61.4853 25.1441C61.4853 26.6954 61.067 27.9203 60.2284 28.8208C59.4777 29.6214 58.5463 30.0208 57.4342 30.0208C56.2342 30.0208 55.3697 29.5885 54.8456 28.727H54.8086V33.5278H52.7821V23.7005C52.7821 22.7252 52.7571 21.7259 52.7072 20.6996H54.4892L54.601 22.1442H54.6399C55.3148 21.056 56.341 20.5119 57.7157 20.5119C58.7888 20.5119 59.6883 20.9372 60.4071 21.7878C61.1259 22.6393 61.4853 23.7574 61.4853 25.1441Z" fill="#FEFEFE"/>
<path fill-rule="evenodd" clip-rule="evenodd" d="M69.9078 25.2189C69.9078 24.3314 69.7072 23.5997 69.3059 23.0237C68.8676 22.4247 68.2816 22.1232 67.5439 22.1232C67.0427 22.1232 66.5885 22.2909 66.1842 22.6203C65.7769 22.9538 65.5123 23.388 65.3875 23.9261C65.3236 24.1767 65.2927 24.3813 65.2927 24.5431V26.0635C65.2927 26.7264 65.4953 27.2864 65.9017 27.7416C66.309 28.1999 66.8351 28.4255 67.488 28.4255C68.2497 28.4255 68.8457 28.134 69.2689 27.546C69.6932 26.957 69.9078 26.1823 69.9078 25.2189ZM71.9693 25.1441C71.9693 26.6954 71.5511 27.9203 70.7125 28.8208C69.9618 29.6214 69.0313 30.0208 67.9172 30.0208C66.7183 30.0208 65.8557 29.5885 65.3306 28.727H65.2927V33.5278H63.2681V23.7005C63.2681 22.7252 63.2412 21.7259 63.1933 20.6996H64.9742L65.087 22.1442H65.126C65.7988 21.056 66.8241 20.5119 68.2007 20.5119C69.2749 20.5119 70.1724 20.9372 70.8922 21.7878C71.6109 22.6393 71.9693 23.7574 71.9693 25.1441Z" fill="#FEFEFE"/>
<path fill-rule="evenodd" clip-rule="evenodd" d="M83.6935 26.2698C83.6935 27.345 83.3211 28.2195 82.5694 28.8954C81.7458 29.6341 80.5988 30.0015 79.1273 30.0015C77.7676 30.0015 76.6754 29.7399 75.8488 29.2148L76.319 27.5267C77.2085 28.0648 78.1839 28.3323 79.2481 28.3323C80.0118 28.3323 80.6048 28.1616 81.031 27.8172C81.4553 27.4728 81.6679 27.0116 81.6679 26.4366C81.6679 25.9234 81.4922 25.4902 81.1428 25.1398C80.7944 24.7884 80.2094 24.4629 79.3968 24.1624C77.1836 23.3348 76.0784 22.1269 76.0784 20.5366C76.0784 19.4964 76.4648 18.6448 77.2415 17.9819C78.0162 17.3171 79.0474 16.9846 80.3362 16.9846C81.4873 16.9846 82.4436 17.1853 83.2053 17.5856L82.6992 19.2358C81.9864 18.8495 81.1808 18.6548 80.2793 18.6548C79.5655 18.6548 79.0105 18.8295 78.6111 19.1799C78.2747 19.4924 78.105 19.8747 78.105 20.3239C78.105 20.8231 78.2977 21.2374 78.685 21.5608C79.0214 21.8613 79.6344 22.1868 80.5239 22.5382C81.612 22.9754 82.4107 23.4876 82.9238 24.0746C83.4369 24.6636 83.6935 25.3953 83.6935 26.2698Z" fill="#FEFEFE"/>
<path fill-rule="evenodd" clip-rule="evenodd" d="M90.3891 22.2181H88.1569V26.6446C88.1569 27.7707 88.5512 28.3327 89.3399 28.3327C89.7003 28.3327 90.0008 28.3018 90.2384 28.2399L90.2943 29.7773C89.897 29.928 89.3699 30.0019 88.72 30.0019C87.9193 30.0019 87.2934 29.7583 86.8441 29.2721C86.3949 28.784 86.1683 27.9634 86.1683 26.8143V22.2181H84.8366V20.6977H86.1683V19.0295L88.1569 18.4286V20.6977H90.3891V22.2181Z" fill="#FEFEFE"/>
<path fill-rule="evenodd" clip-rule="evenodd" d="M98.361 25.2472C98.361 24.4076 98.1803 23.6868 97.8169 23.0839C97.3926 22.3571 96.7856 21.9937 95.999 21.9937C95.1834 21.9937 94.5654 22.3571 94.1411 23.0839C93.7778 23.6868 93.5991 24.4196 93.5991 25.2871C93.5991 26.1267 93.7778 26.8475 94.1411 27.4484C94.5784 28.1752 95.1914 28.5386 95.981 28.5386C96.7547 28.5386 97.3617 28.1702 97.7989 27.4295C98.1733 26.8155 98.361 26.0877 98.361 25.2472ZM100.462 25.1823C100.462 26.5829 100.063 27.7329 99.2624 28.6334C98.4229 29.5598 97.3098 30.0211 95.9241 30.0211C94.5844 30.0211 93.5202 29.5768 92.7256 28.6893C91.9309 27.8018 91.5346 26.6817 91.5346 25.333C91.5346 23.9184 91.9429 22.7624 92.7635 21.8629C93.5801 20.9615 94.6842 20.5112 96.0729 20.5112C97.4096 20.5112 98.4868 20.9555 99.2994 21.843C100.076 22.7075 100.462 23.8186 100.462 25.1823Z" fill="#FEFEFE"/>
<path fill-rule="evenodd" clip-rule="evenodd" d="M107.045 22.4799C106.845 22.4439 106.633 22.424 106.408 22.424C105.696 22.424 105.144 22.6945 104.757 23.2316C104.42 23.7068 104.251 24.3078 104.251 25.0315V29.8144H102.226L102.243 23.57C102.243 22.5188 102.218 21.5624 102.169 20.6989H103.933L104.008 22.4439H104.062C104.276 21.844 104.614 21.3618 105.075 21.0004C105.525 20.6749 106.015 20.5112 106.54 20.5112C106.726 20.5112 106.896 20.5242 107.045 20.5472V22.4799Z" fill="#FEFEFE"/>
<path fill-rule="evenodd" clip-rule="evenodd" d="M114.172 24.2996C114.187 23.7006 114.055 23.1815 113.78 22.7432C113.429 22.1802 112.889 21.8987 112.164 21.8987C111.504 21.8987 110.965 22.1752 110.553 22.7253C110.215 23.1635 110.015 23.6866 109.954 24.2996H114.172ZM116.104 24.8247C116.104 25.1891 116.079 25.4936 116.03 25.7441H109.954C109.977 26.6446 110.273 27.3334 110.835 27.8096C111.346 28.2339 112.011 28.4445 112.823 28.4445C113.722 28.4445 114.541 28.3018 115.28 28.0143L115.599 29.4209C114.736 29.7962 113.718 29.9849 112.54 29.9849C111.128 29.9849 110.018 29.5686 109.211 28.736C108.407 27.9055 108.001 26.7884 108.001 25.3877C108.001 24.0131 108.377 22.868 109.129 21.9546C109.914 20.9792 110.978 20.4931 112.315 20.4931C113.628 20.4931 114.624 20.9792 115.301 21.9546C115.836 22.7303 116.104 23.6866 116.104 24.8247Z" fill="#FEFEFE"/>
</g>
</svg>
